<svg xmlns="http://www.w3.org/2000/svg" version="1.1" xmlns:xlink="http://www.w3.org/1999/xlink" xmlns:svgjs="http://svgjs.com/svgjs" width="1440" height="560" preserveAspectRatio="none" viewBox="0 0 1440 560">
    <g mask="url(&quot;#SvgjsMask1005&quot;)" fill="none">
        <rect width="1440" height="560" x="0" y="0" fill="#F9F9FC"></rect>
        <path d="M102.22 0C124.84 5 120.4 30.91 140 30.91C162.18 30.91 159.9 5.71 185.77 0C229.9 -9.74 232.88 0 280 0C350 0 350 0 420 0C469.88 0 496.4 -29.06 519.77 0C552.7 40.94 516.48 75.3 532.61 140C536.6 155.98 547.77 161.36 560 161.36C569.34 161.36 572.11 152.6 575.75 140C595.44 71.92 569.04 42.4 606.67 0C631.17 -27.6 653.34 0 700 0C770 0 770 0 840 0C891.63 0 915.71 -29.38 943.25 0C981.33 40.62 996.08 86.92 971.25 140C944.45 197.3 903.28 177.1 840 220.77C801.84 247.1 768.37 254.8 768.37 280C768.37 301.52 801.71 308.21 840 314.22C907.53 324.82 911.68 323.24 980 313.22C1028.34 306.13 1069.17 313.46 1073.33 280C1079.94 226.85 1017.57 213.97 1001.54 140C987.24 73.97 979.1 39.68 1012.67 0C1038.33 -30.22 1066.34 0 1120 0C1174.27 0 1191.84 -24.47 1228.54 0C1261.84 22.2 1237.06 93.33 1260 93.33C1286.94 93.33 1285.08 28.8 1328.29 0C1355.08 -17.86 1364.14 0 1400 0C1470 0 1505 -35 1540 0C1575 35 1540 70 1540 140C1540 210 1540 210 1540 280C1540 350 1540 350 1540 420C1540 490 1575 525 1540 560C1505 595 1470 560 1400 560C1347.5 560 1345.21 567.93 1295 560C1275.21 556.87 1278.75 537.89 1260 537.89C1229.75 537.89 1229.51 554.87 1197 560C1159.51 565.92 1158.5 560 1120 560C1093.45 560 1091.89 567.14 1066.9 560C1021.89 547.14 1022.34 520 980 520C945.73 520 949.55 549.75 913.68 560C879.55 569.75 876.84 560 840 560C770 560 770 560 700 560C630 560 630 560 560 560C493.74 560 485.37 571.03 427.47 560C415.37 557.69 428.43 533.33 420 533.33C406.03 533.33 404.29 555.88 382.67 560C334.29 569.22 331.34 560 280 560C247.91 560 243.68 572.07 215.83 560C173.68 541.73 183.68 505.9 140 499.33C75.76 489.68 39.93 550.19 0 527.56C-30.07 510.52 0 473.78 0 420C0 350 0 350 0 280C0 210 0 210 0 140C0 70 -29.54 40.46 0 0C21.57 -29.54 54.84 -10.46 102.22 0" stroke="rgba(209,199,249,0.2)" stroke-width="2"></path>
        <path d="M560 417.25C556.2 417.25 552.22 418.81 552.22 420C552.22 421.16 556.16 421.94 560 421.94C562.74 421.94 565.38 421.14 565.38 420C565.38 418.8 562.78 417.25 560 417.25" stroke="rgba(209,199,249,0.2)" stroke-width="2"></path>
        <path d="M1120 361.67C1113.19 361.67 1106 391.09 1106 420C1106 442.13 1113.18 463.75 1120 463.75C1126.79 463.75 1133.21 442.11 1133.21 420C1133.21 391.07 1126.79 361.67 1120 361.67" stroke="rgba(209,199,249,0.2)" stroke-width="2"></path>
        <path d="M46.67 0C97.14 27.53 89.87 43.39 140 76.36C196.29 113.39 204.93 102.59 259.51 140C274.93 150.57 266.48 172.31 280 172.31C300.06 172.31 326.67 158.95 326.67 140C326.67 116.55 295.98 117.89 280 87.5C259.18 47.89 253.08 33.81 253.08 0C253.08 -9.94 266.54 0 280 0C350 0 350 0 420 0C449.77 0 474.14 -20.69 479.54 0C492.4 49.31 435.62 82.68 456.52 140C475.85 193.02 513.8 220.68 560 220.68C595.29 220.68 600.25 185.28 619.5 140C647.01 74.94 622.93 52.87 653.33 0C663.18 -17.13 676.66 0 700 0C770 0 770 0 840 0C869.75 0 896.32 -20.27 899.5 0C907.26 49.63 887.15 74.82 861.88 140C857.4 151.55 850.04 145.47 840 153.46C769.1 209.87 770.93 212.46 700 268.8C691.27 275.73 690.29 274.47 680.69 280C620.29 314.39 623.28 320.97 560 348.63C492.93 377.95 486.58 365.55 420 393.95C402.92 401.24 406.79 407.47 392.68 420C336.79 469.64 336.34 518.3 280 518.3C223.66 518.3 224.11 468.61 167.32 420C154.11 408.69 153.36 398.46 140 398.46C127.52 398.46 129.43 411.49 115.65 420C59.43 454.7 38.83 484.88 0 484.88C-19 484.88 0 452.44 0 420C0 350 0 350 0 280C0 210 0 210 0 140C0 70 -17.5 52.5 0 0C5.83 -17.5 27.14 -10.65 46.67 0" stroke="rgba(209,199,249,0.2)" stroke-width="2"></path>
        <path d="M1120 106.21C1085.64 106.21 1051.56 34.45 1051.56 0C1051.56 -18.66 1085.78 0 1120 0C1154.61 0 1189.21 -18.75 1189.21 0C1189.21 34.35 1154.47 106.21 1120 106.21" stroke="rgba(209,199,249,0.2)" stroke-width="2"></path>
        <path d="M1332.41 140C1374.38 93.67 1366.88 85.95 1400 31.11C1409.16 15.95 1401.32 3.48 1416.97 0C1471.32 -12.08 1511.23 -32.74 1540 0C1572.74 37.26 1540 70 1540 140C1540 210 1540 210 1540 280C1540 350 1540 350 1540 420C1540 490 1575 525 1540 560C1505 595 1470 560 1400 560C1396.11 560 1395.54 561.98 1392.22 560C1325.54 520.22 1323.04 522.23 1260 476.49C1226.56 452.23 1215.53 456.11 1199.25 420C1171.24 357.87 1155.5 341.46 1171.43 280C1185.87 224.28 1211.55 227.78 1260 185.65C1292.04 157.78 1304.38 170.94 1332.41 140" stroke="rgba(209,199,249,0.2)" stroke-width="2"></path>
        <path d="M1400 212.59C1380.52 212.59 1358.64 247.26 1358.64 280C1358.64 308.54 1380.4 335.15 1400 335.15C1418.58 335.15 1435 308.33 1435 280C1435 247.05 1418.7 212.59 1400 212.59" stroke="rgba(209,199,249,0.2)" stroke-width="2"></path>
        <path d="M700 420C770 386.56 766.74 365.53 840 353.11C906.74 341.8 915.5 350.53 980 372.54C1013.5 383.97 1036 396.72 1036 420C1036 442.67 1010.04 445.22 980 464.44C912.04 507.93 908.34 502.86 840 545.42C831.61 550.64 836.03 559.01 826.54 560C766.03 566.3 763.27 560 700 560C630 560 630 560 560 560C517.07 560 474.13 578.3 474.13 560C474.13 533.58 508.68 502.37 560 470.56C621.61 432.37 630 445.28 700 420C700 420 700 420 700 420" stroke="rgba(209,199,249,0.2)" stroke-width="2"></path>
        <path d="M0 32.94C42.54 27.42 69.4 78.42 140 121.82C156.47 131.95 163.34 124.57 174.15 140C218.75 203.66 260.51 225.84 250.83 280C243.43 321.42 190.24 297.79 140 331.15C84.71 367.79 91.87 378.51 39.57 420C21.87 434.04 13.28 442.2 0 442.2C-6.5 442.2 0 431.1 0 420C0 350 0 350 0 280C0 210 0 210 0 140C0 86.47 -27.46 36.51 0 32.94" stroke="rgba(209,199,249,0.2)" stroke-width="2"></path>
        <path d="M420 67.2C396.88 67.2 357.78 20.01 357.78 0C357.78 -13.59 388.89 0 420 0C429.65 0 439.31 -7.27 439.31 0C439.31 26.33 437.65 67.2 420 67.2" stroke="rgba(209,199,249,0.2)" stroke-width="2"></path>
        <path d="M663.25 140C663.25 72.79 681.63 70 700 0C700 0 700 0 700 0C770 0 770 0 840 0C847.88 0 855.75 -5.52 855.75 0C855.75 16.2 851.81 23.78 840 43.45C809.79 93.78 810.94 96.46 771.71 140C740.94 174.14 731.03 198.8 700 198.8C676.8 198.8 663.25 172.19 663.25 140" stroke="rgba(209,199,249,0.2)" stroke-width="2"></path>
        <path d="M1120 45.86C1105.16 45.86 1090.44 14.87 1090.44 0C1090.44 -8.06 1105.22 0 1120 0C1134.95 0 1149.89 -8.1 1149.89 0C1149.89 14.83 1134.89 45.86 1120 45.86" stroke="rgba(209,199,249,0.2)" stroke-width="2"></path>
        <path d="M1540 29.47C1535.45 29.47 1523.03 9.83 1523.03 0C1523.03 -4.91 1536.9 -5.38 1540 0C1545.38 9.35 1543.94 29.47 1540 29.47" stroke="rgba(209,199,249,0.2)" stroke-width="2"></path>
        <path d="M326.67 280C326.67 255.25 370.78 219.13 420 219.13C487.44 219.13 560 255.94 560 280C560 302.65 489.13 312.56 420 312.56C372.46 312.56 326.67 301.96 326.67 280" stroke="rgba(209,199,249,0.2)" stroke-width="2"></path>
        <path d="M1242.86 280C1242.86 268.26 1251.18 261.74 1260 261.74C1269.3 261.74 1279.09 267.77 1279.09 280C1279.09 329.4 1269.07 385 1260 385C1250.96 385 1242.86 329.89 1242.86 280" stroke="rgba(209,199,249,0.2)" stroke-width="2"></path>
        <path d="M1502.31 280C1519.77 245.49 1529.94 212.41 1540 212.41C1548.79 212.41 1540 246.2 1540 280C1540 350 1540 350 1540 420C1540 475.26 1562.07 530.53 1540 530.53C1509.57 530.53 1444.33 482.04 1435 420C1425.49 356.78 1467.27 349.28 1502.31 280" stroke="rgba(209,199,249,0.2)" stroke-width="2"></path>
        <path d="M252.68 420C252.68 380.75 266.34 333.85 280 333.85C293.66 333.85 307.32 380.75 307.32 420C307.32 435.74 293.66 443.83 280 443.83C266.34 443.83 252.68 435.74 252.68 420" stroke="rgba(209,199,249,0.2)" stroke-width="2"></path>
        <path d="M781.4 420C781.4 401.8 809.33 392 840 392C893.41 392 949.57 400.6 949.57 420C949.57 440.85 891.04 472.5 840 472.5C806.95 472.5 781.4 442.05 781.4 420" stroke="rgba(209,199,249,0.2)" stroke-width="2"></path>
        <path d="M520.8 560C520.8 547.94 534.48 528.5 560 519.17C624.08 495.74 638.56 481.88 700 494.47C738.18 502.29 759.23 540.29 759.23 560C759.23 573.15 729.62 560 700 560C630 560 630 560 560 560C540.4 560 520.8 568.35 520.8 560" stroke="rgba(209,199,249,0.2)" stroke-width="2"></path>
    </g>
    <defs>
        <mask id="SvgjsMask1005">
            <rect width="1440" height="560" fill="#ffffff"></rect>
        </mask>
    </defs>
</svg>