<svg width="149" height="34" viewBox="0 0 149 34" fill="none" xmlns="http://www.w3.org/2000/svg">
<mask id="mask0" mask-type="alpha" maskUnits="userSpaceOnUse" x="0" y="1" width="38" height="33">
<path d="M18.6729 23.174C15.4501 23.174 12.8376 20.5615 12.8376 17.3388C12.8376 14.116 15.4501 11.5035 18.6729 11.5035C21.8956 11.5035 24.5081 14.116 24.5081 17.3388C24.5081 20.5615 21.8956 23.174 18.6729 23.174ZM36.7335 15.3985C37.1417 16.0112 37.3457 16.6239 37.3457 17.3388C37.3457 18.0536 37.1417 18.7684 36.7335 19.279L31.1214 29.4907C30.6113 30.5119 29.1827 30.5119 28.5705 29.5928L25.6114 24.9976C25.3053 24.487 25.4073 23.7721 25.8155 23.2616C27.4481 21.3213 28.2644 18.7684 27.8562 15.9091C27.244 12.0287 24.0809 8.76091 20.2034 8.14821C13.673 7.02492 8.163 12.8456 9.59153 19.4832C10.2038 22.3425 12.4486 24.8954 15.2036 26.0187C17.3464 26.9378 19.3871 26.9378 21.2238 26.4272C21.734 26.223 22.4483 26.5293 22.7544 27.0399L25.5094 31.4309C26.1216 32.35 25.4073 33.6775 24.2849 33.6775H10.5099C9.18338 33.6775 8.06097 32.9627 7.44874 31.8394L0.612225 19.279C0.204075 18.7684 0 18.0536 0 17.3388C0 16.6239 0.204075 16.0112 0.612225 15.3985L7.44874 2.83811C8.06097 1.71482 9.18338 1 10.5099 1H26.8359C28.1624 1 29.2848 1.71482 29.897 2.83811L36.7335 15.3985Z" fill="white"/>
</mask>
<g mask="url(#mask0)">
<path d="M18.6729 23.174C15.4501 23.174 12.8376 20.5615 12.8376 17.3388C12.8376 14.116 15.4501 11.5035 18.6729 11.5035C21.8956 11.5035 24.5081 14.116 24.5081 17.3388C24.5081 20.5615 21.8956 23.174 18.6729 23.174ZM36.7335 15.3985C37.1417 16.0112 37.3457 16.6239 37.3457 17.3388C37.3457 18.0536 37.1417 18.7684 36.7335 19.279L31.1214 29.4907C30.6113 30.5119 29.1827 30.5119 28.5705 29.5928L25.6114 24.9976C25.3053 24.487 25.4073 23.7721 25.8155 23.2616C27.4481 21.3213 28.2644 18.7684 27.8562 15.9091C27.244 12.0287 24.0809 8.76091 20.2034 8.14821C13.673 7.02492 8.163 12.8456 9.59153 19.4832C10.2038 22.3425 12.4486 24.8954 15.2036 26.0187C17.3464 26.9378 19.3871 26.9378 21.2238 26.4272C21.734 26.223 22.4483 26.5293 22.7544 27.0399L25.5094 31.4309C26.1216 32.35 25.4073 33.6775 24.2849 33.6775H10.5099C9.18338 33.6775 8.06097 32.9627 7.44874 31.8394L0.612225 19.279C0.204075 18.7684 0 18.0536 0 17.3388C0 16.6239 0.204075 16.0112 0.612225 15.3985L7.44874 2.83811C8.06097 1.71482 9.18338 1 10.5099 1H26.8359C28.1624 1 29.2848 1.71482 29.897 2.83811L36.7335 15.3985Z" fill="rgb(165,165,165)"/>
<path d="M37.3457 1H0V33.6775H37.3457V1Z" fill="rgb(170,170,172)"/>
</g>
<path d="M51.1271 16.9534H48.4709V5.70503H51.1271V16.9534ZM48.0552 1.75539C48.0552 0.785308 48.8405 0 49.7875 0C50.7576 0 51.5429 0.785308 51.5429 1.75539C51.5429 2.72548 50.7576 3.48769 49.7875 3.48769C48.8405 3.48769 48.0552 2.72548 48.0552 1.75539ZM59.4883 7.82998C57.8484 7.82998 56.3933 9.05413 56.3933 11.3177C56.3933 13.5812 57.8484 14.8516 59.5345 14.8516C61.2899 14.8516 62.0983 13.6274 62.3524 12.7728L64.7083 13.6274C64.1771 15.3828 62.491 17.2999 59.5345 17.2999C56.2316 17.2999 53.714 14.7361 53.714 11.3177C53.714 7.85308 56.2316 5.35857 59.4652 5.35857C62.491 5.35857 64.154 7.25255 64.6159 9.05413L62.2138 9.93183C61.9597 8.93865 61.1975 7.82998 59.4883 7.82998ZM71.7992 14.8977C73.4622 14.8977 74.9404 13.6736 74.9404 11.3177C74.9404 8.98484 73.4622 7.78378 71.7992 7.78378C70.1593 7.78378 68.658 8.98484 68.658 11.3177C68.658 13.6505 70.1593 14.8977 71.7992 14.8977ZM71.7992 5.35857C75.1714 5.35857 77.6428 7.87617 77.6428 11.3177C77.6428 14.7823 75.1714 17.2999 71.7992 17.2999C68.4501 17.2999 65.9787 14.7823 65.9787 11.3177C65.9787 7.87617 68.4501 5.35857 71.7992 5.35857ZM82.909 10.4631V16.9534H80.2297V5.70503H82.8397V7.20635C83.5788 5.9129 84.9184 5.38167 86.1657 5.38167C88.9143 5.38167 90.2308 7.36803 90.2308 9.83944V16.9534H87.5515V10.3014C87.5515 8.91555 86.9279 7.80688 85.2418 7.80688C83.7174 7.80688 82.909 8.98484 82.909 10.4631ZM92.4943 13.9046L94.8272 13.2578C94.9196 14.2741 95.6818 15.1749 97.1138 15.1749C98.2225 15.1749 98.7999 14.5744 98.7999 13.8815C98.7999 13.2809 98.3842 12.819 97.4834 12.6342L95.8204 12.2647C93.834 11.8258 92.7946 10.5324 92.7946 8.98484C92.7946 7.02157 94.5962 5.35857 96.929 5.35857C100.07 5.35857 101.087 7.39113 101.271 8.4998L99.0078 9.14652C98.9154 8.4998 98.4303 7.46042 96.929 7.46042C95.982 7.46042 95.3122 8.06095 95.3122 8.75387C95.3122 9.3544 95.7511 9.79325 96.444 9.93183L98.1532 10.2783C100.278 10.7402 101.387 12.0337 101.387 13.6967C101.387 15.4059 100.001 17.2999 97.1369 17.2999C93.8802 17.2999 92.6329 15.1749 92.4943 13.9046ZM108.803 7.82998C107.163 7.82998 105.708 9.05413 105.708 11.3177C105.708 13.5812 107.163 14.8516 108.85 14.8516C110.605 14.8516 111.413 13.6274 111.667 12.7728L114.023 13.6274C113.492 15.3828 111.806 17.2999 108.85 17.2999C105.547 17.2999 103.029 14.7361 103.029 11.3177C103.029 7.85308 105.547 5.35857 108.78 5.35857C111.806 5.35857 113.469 7.25255 113.931 9.05413L111.529 9.93183C111.275 8.93865 110.513 7.82998 108.803 7.82998ZM121.114 14.8977C122.777 14.8977 124.255 13.6736 124.255 11.3177C124.255 8.98484 122.777 7.78378 121.114 7.78378C119.474 7.78378 117.973 8.98484 117.973 11.3177C117.973 13.6505 119.474 14.8977 121.114 14.8977ZM121.114 5.35857C124.486 5.35857 126.958 7.87617 126.958 11.3177C126.958 14.7823 124.486 17.2999 121.114 17.2999C117.765 17.2999 115.294 14.7823 115.294 11.3177C115.294 7.87617 117.765 5.35857 121.114 5.35857ZM136.726 15.7062C136.171 16.7224 134.855 17.2768 133.538 17.2768C130.859 17.2768 129.288 15.2904 129.288 12.7959V5.70503H131.968V12.3109C131.968 13.6967 132.614 14.8746 134.231 14.8746C135.779 14.8746 136.587 13.8353 136.587 12.357V5.70503H139.266V14.8977C139.266 15.8216 139.336 16.5377 139.382 16.9534H136.818C136.772 16.6993 136.726 16.1681 136.726 15.7062ZM146.126 2.26353V5.70503H148.459V8.08405H146.126V13.304C146.126 14.2972 146.565 14.713 147.558 14.713C147.928 14.713 148.367 14.6437 148.482 14.6206V16.8379C148.32 16.9072 147.812 17.092 146.842 17.092C144.763 17.092 143.47 15.8447 143.47 13.7429V8.08405H141.391V5.70503H141.969C143.17 5.70503 143.701 4.94282 143.701 3.94964V2.26353H146.126Z" fill="#8c8c8c"/>
<path d="M50.877 26.0306C51.6612 26.0306 52.3148 26.3112 52.8376 26.8725C53.3605 27.4261 53.6219 28.1181 53.6219 28.9485C53.6219 29.7943 53.3566 30.4786 52.8261 31.0014C52.3032 31.5243 51.6497 31.7857 50.8654 31.7857C50.035 31.7857 49.3815 31.4666 48.9048 30.8284H48.8817V31.7165H47.9937V23.228H48.9278V26.9417H48.9394C49.4315 26.3343 50.0773 26.0306 50.877 26.0306ZM50.7732 30.9322C51.3344 30.9322 51.7881 30.7477 52.1341 30.3786C52.4878 30.0019 52.6646 29.5252 52.6646 28.9485C52.6646 28.3334 52.4839 27.8375 52.1226 27.4607C51.7612 27.084 51.3075 26.8956 50.7616 26.8956C50.2311 26.8956 49.7851 27.0955 49.4238 27.4953C49.0701 27.8875 48.8932 28.3719 48.8932 28.9485C48.8932 29.5252 49.0778 30.0019 49.4468 30.3786C49.8159 30.7477 50.258 30.9322 50.7732 30.9322Z" fill="rgb(171,171,171)"/>
<path d="M58.6161 26.0998H59.608L56.4363 34.0001H55.4445L56.4479 31.4858L54.072 26.0998H55.0754L56.8977 30.3786H56.9207L58.6161 26.0998Z" fill="rgb(171,171,171)"/>
<path d="M64.1142 31.7165V23.5279H65.1175V30.7938H69.1772V31.7165H64.1142Z" fill="rgb(171,171,171)"/>
<path d="M72.967 31.7857C72.1059 31.7857 71.4062 31.5127 70.8679 30.9668C70.3297 30.4209 70.0606 29.7366 70.0606 28.9139C70.0606 28.0912 70.3297 27.4069 70.8679 26.861C71.4062 26.3074 72.1059 26.0306 72.967 26.0306C73.7974 26.0306 74.4855 26.2997 75.0314 26.8379C75.5774 27.3762 75.8503 28.0681 75.8503 28.9139C75.8503 29.7597 75.5774 30.4517 75.0314 30.9899C74.4855 31.5204 73.7974 31.7857 72.967 31.7857ZM72.967 30.9322C73.5129 30.9322 73.9704 30.7439 74.3395 30.3671C74.7162 29.9827 74.9046 29.4983 74.9046 28.9139C74.9046 28.3219 74.7201 27.8375 74.351 27.4607C73.9819 27.084 73.5206 26.8956 72.967 26.8956C72.3903 26.8956 71.9175 27.0917 71.5484 27.4838C71.187 27.8682 71.0063 28.3449 71.0063 28.9139C71.0063 29.4829 71.187 29.9634 71.5484 30.3556C71.9175 30.74 72.3903 30.9322 72.967 30.9322Z" fill="rgb(171,171,171)"/>
<path d="M78.8235 31.7857C77.8471 31.7857 77.3588 31.2052 77.3588 30.0442V26.9071H76.6438V26.0998H77.3588V24.1853L78.293 24.0815V26.0998H80.1614V26.9071H78.293V29.9058C78.293 30.2518 78.343 30.5055 78.4429 30.667C78.5506 30.8284 78.7313 30.9092 78.985 30.9092C79.2772 30.9092 79.5924 30.8131 79.9307 30.6208L80.1845 31.4397C79.7693 31.6704 79.3156 31.7857 78.8235 31.7857Z" fill="rgb(171,171,171)"/>
<path d="M83.0246 31.7857C82.0481 31.7857 81.5599 31.2052 81.5599 30.0442V26.9071H80.8448V26.0998H81.5599V24.1853L82.4941 24.0815V26.0998H84.3625V26.9071H82.4941V29.9058C82.4941 30.2518 82.5441 30.5055 82.644 30.667C82.7517 30.8284 82.9324 30.9092 83.1861 30.9092C83.4783 30.9092 83.7935 30.8131 84.1318 30.6208L84.3855 31.4397C83.9703 31.6704 83.5167 31.7857 83.0246 31.7857Z" fill="rgb(171,171,171)"/>
<path d="M86.1201 25.0618C85.9279 25.0618 85.7664 25.0003 85.6357 24.8773C85.5127 24.7466 85.4512 24.589 85.4512 24.4044C85.4512 24.2199 85.5127 24.0661 85.6357 23.9431C85.7664 23.8124 85.9279 23.747 86.1201 23.747C86.3047 23.747 86.4623 23.8124 86.593 23.9431C86.7237 24.0738 86.789 24.2276 86.789 24.4044C86.789 24.589 86.7237 24.7466 86.593 24.8773C86.4623 25.0003 86.3047 25.0618 86.1201 25.0618ZM85.6473 31.7165V26.0998H86.5815V31.7165H85.6473Z" fill="rgb(171,171,171)"/>
<path d="M93.3976 28.8217C93.3976 28.8832 93.3938 28.9639 93.3861 29.0638L93.3745 29.2022H89.0496C89.1111 29.7251 89.311 30.1441 89.6493 30.4594C89.9953 30.7746 90.422 30.9322 90.9295 30.9322C91.583 30.9322 92.1097 30.6785 92.5095 30.171L93.1669 30.7362C92.621 31.4359 91.8637 31.7857 90.8949 31.7857C90.0876 31.7857 89.4186 31.5204 88.8881 30.9899C88.3653 30.4517 88.1038 29.7597 88.1038 28.9139C88.1038 28.0758 88.3576 27.3877 88.865 26.8495C89.3802 26.3036 90.0222 26.0306 90.7911 26.0306C91.5677 26.0306 92.1943 26.292 92.671 26.8149C93.1554 27.3377 93.3976 28.0066 93.3976 28.8217ZM91.9329 27.3108C91.6484 27.034 91.2832 26.8956 90.8372 26.8956C90.3913 26.8956 90.0068 27.034 89.6839 27.3108C89.3687 27.5799 89.1687 27.9528 89.0842 28.4295H92.4749C92.398 27.9605 92.2174 27.5876 91.9329 27.3108Z" fill="rgb(171,171,171)"/>
<path d="M94.9633 31.7165V23.5279H100.188V24.4506H95.9667V27.3223H99.5536V28.245H95.9667V31.7165H94.9633Z" fill="rgb(171,171,171)"/>
<path d="M101.899 25.0618C101.707 25.0618 101.546 25.0003 101.415 24.8773C101.292 24.7466 101.231 24.589 101.231 24.4044C101.231 24.2199 101.292 24.0661 101.415 23.9431C101.546 23.8124 101.707 23.747 101.899 23.747C102.084 23.747 102.242 23.8124 102.372 23.9431C102.503 24.0738 102.568 24.2276 102.568 24.4044C102.568 24.589 102.503 24.7466 102.372 24.8773C102.242 25.0003 102.084 25.0618 101.899 25.0618ZM101.427 31.7165V26.0998H102.361V31.7165H101.427Z" fill="rgb(171,171,171)"/>
<path d="M104.31 31.7165V23.228H105.244V31.7165H104.31Z" fill="rgb(171,171,171)"/>
<path d="M112.06 28.8217C112.06 28.8832 112.056 28.9639 112.049 29.0638L112.037 29.2022H107.712C107.774 29.7251 107.974 30.1441 108.312 30.4594C108.658 30.7746 109.085 30.9322 109.592 30.9322C110.246 30.9322 110.772 30.6785 111.172 30.171L111.83 30.7362C111.284 31.4359 110.526 31.7857 109.558 31.7857C108.75 31.7857 108.081 31.5204 107.551 30.9899C107.028 30.4517 106.767 29.7597 106.767 28.9139C106.767 28.0758 107.02 27.3877 107.528 26.8495C108.043 26.3036 108.685 26.0306 109.454 26.0306C110.23 26.0306 110.857 26.292 111.334 26.8149C111.818 27.3377 112.06 28.0066 112.06 28.8217ZM110.596 27.3108C110.311 27.034 109.946 26.8956 109.5 26.8956C109.054 26.8956 108.67 27.034 108.347 27.3108C108.031 27.5799 107.831 27.9528 107.747 28.4295H111.138C111.061 27.9605 110.88 27.5876 110.596 27.3108Z" fill="rgb(171,171,171)"/>
<path d="M115.195 31.7857C114.326 31.7857 113.591 31.5166 112.992 30.9784L113.476 30.2748C113.96 30.7208 114.533 30.9438 115.195 30.9438C115.517 30.9438 115.775 30.8707 115.967 30.7246C116.159 30.5785 116.256 30.4017 116.256 30.1941C116.256 29.9788 116.159 29.8174 115.967 29.7097C115.783 29.5944 115.456 29.456 114.987 29.2945C114.956 29.2868 114.933 29.2791 114.918 29.2714C114.372 29.0792 113.953 28.8601 113.661 28.6141C113.376 28.368 113.234 28.0105 113.234 27.5415C113.234 27.1109 113.407 26.7534 113.753 26.4689C114.107 26.1767 114.553 26.0306 115.091 26.0306C115.806 26.0306 116.448 26.2613 117.017 26.7226L116.532 27.4607C116.086 27.0763 115.591 26.8841 115.045 26.8841C114.822 26.8841 114.622 26.9456 114.445 27.0686C114.268 27.1916 114.18 27.3492 114.18 27.5415C114.18 27.7414 114.264 27.9028 114.433 28.0259C114.61 28.1489 114.879 28.2796 115.241 28.418C115.302 28.4411 115.414 28.4833 115.575 28.5449C115.744 28.6064 115.856 28.6487 115.91 28.6717C115.963 28.6948 116.056 28.7371 116.186 28.7986C116.317 28.8524 116.406 28.8947 116.452 28.9254C116.498 28.9485 116.567 28.9908 116.659 29.0523C116.759 29.1138 116.825 29.1676 116.855 29.2138C116.894 29.2599 116.94 29.3214 116.994 29.3983C117.055 29.4752 117.098 29.5521 117.121 29.629C117.144 29.6982 117.163 29.7828 117.178 29.8827C117.194 29.975 117.201 30.0749 117.201 30.1826C117.201 30.6439 117.028 31.0283 116.682 31.3359C116.336 31.6358 115.84 31.7857 115.195 31.7857Z" fill="rgb(171,171,171)"/>
</svg>
