<svg xmlns="http://www.w3.org/2000/svg" version="1.1" xmlns:xlink="http://www.w3.org/1999/xlink" xmlns:svgjs="http://svgjs.com/svgjs" width="1440" height="560" preserveAspectRatio="none" viewBox="0 0 1440 560"><g mask="url(&quot;#SvgjsMask1011&quot;)" fill="none"><rect width="1440" height="560" x="0" y="0" fill="rgba(15, 18, 33, 1)"></rect><path d="M88 525L87 227" stroke-width="8" stroke="url(#SvgjsLinearGradient1012)" stroke-linecap="round" class="Down"></path><path d="M24 136L23 280" stroke-width="6" stroke="url(#SvgjsLinearGradient1012)" stroke-linecap="round" class="Down"></path><path d="M757 222L756 577" stroke-width="6" stroke="url(#SvgjsLinearGradient1012)" stroke-linecap="round" class="Down"></path><path d="M308 62L307 367" stroke-width="10" stroke="url(#SvgjsLinearGradient1013)" stroke-linecap="round" class="Up"></path><path d="M119 287L118 444" stroke-width="10" stroke="url(#SvgjsLinearGradient1012)" stroke-linecap="round" class="Down"></path><path d="M1366 355L1365 1" stroke-width="8" stroke="url(#SvgjsLinearGradient1012)" stroke-linecap="round" class="Down"></path><path d="M1018 271L1017 -61" stroke-width="10" stroke="url(#SvgjsLinearGradient1013)" stroke-linecap="round" class="Up"></path><path d="M19 118L18 -134" stroke-width="8" stroke="url(#SvgjsLinearGradient1013)" stroke-linecap="round" class="Up"></path><path d="M1071 486L1070 161" stroke-width="10" stroke="url(#SvgjsLinearGradient1013)" stroke-linecap="round" class="Up"></path><path d="M623 539L622 122" stroke-width="6" stroke="url(#SvgjsLinearGradient1012)" stroke-linecap="round" class="Down"></path><path d="M1263 172L1262 494" stroke-width="6" stroke="url(#SvgjsLinearGradient1012)" stroke-linecap="round" class="Down"></path><path d="M341 166L340 386" stroke-width="10" stroke="url(#SvgjsLinearGradient1013)" stroke-linecap="round" class="Up"></path><path d="M678 62L677 -345" stroke-width="8" stroke="url(#SvgjsLinearGradient1012)" stroke-linecap="round" class="Down"></path><path d="M1110 545L1109 200" stroke-width="10" stroke="url(#SvgjsLinearGradient1013)" stroke-linecap="round" class="Up"></path><path d="M495 230L494 486" stroke-width="8" stroke="url(#SvgjsLinearGradient1012)" stroke-linecap="round" class="Down"></path><path d="M518 500L517 705" stroke-width="8" stroke="url(#SvgjsLinearGradient1012)" stroke-linecap="round" class="Down"></path><path d="M1024 415L1023 226" stroke-width="10" stroke="url(#SvgjsLinearGradient1013)" stroke-linecap="round" class="Up"></path><path d="M1335 66L1334 -111" stroke-width="6" stroke="url(#SvgjsLinearGradient1012)" stroke-linecap="round" class="Down"></path><path d="M640 122L639 358" stroke-width="10" stroke="url(#SvgjsLinearGradient1013)" stroke-linecap="round" class="Up"></path><path d="M524 194L523 25" stroke-width="6" stroke="url(#SvgjsLinearGradient1013)" stroke-linecap="round" class="Up"></path><path d="M352 108L351 -301" stroke-width="6" stroke="url(#SvgjsLinearGradient1012)" stroke-linecap="round" class="Down"></path><path d="M233 92L232 -95" stroke-width="10" stroke="url(#SvgjsLinearGradient1012)" stroke-linecap="round" class="Down"></path><path d="M1233 92L1232 478" stroke-width="6" stroke="url(#SvgjsLinearGradient1012)" stroke-linecap="round" class="Down"></path><path d="M411 203L410 -135" stroke-width="6" stroke="url(#SvgjsLinearGradient1012)" stroke-linecap="round" class="Down"></path><path d="M1329 219L1328 484" stroke-width="10" stroke="url(#SvgjsLinearGradient1012)" stroke-linecap="round" class="Down"></path><path d="M560 105L559 454" stroke-width="10" stroke="url(#SvgjsLinearGradient1013)" stroke-linecap="round" class="Up"></path><path d="M1265 202L1264 -59" stroke-width="8" stroke="url(#SvgjsLinearGradient1012)" stroke-linecap="round" class="Down"></path><path d="M848 156L847 421" stroke-width="10" stroke="url(#SvgjsLinearGradient1013)" stroke-linecap="round" class="Up"></path><path d="M11 403L10 109" stroke-width="8" stroke="url(#SvgjsLinearGradient1012)" stroke-linecap="round" class="Down"></path><path d="M618 517L617 826" stroke-width="10" stroke="url(#SvgjsLinearGradient1013)" stroke-linecap="round" class="Up"></path><path d="M1404 404L1403 123" stroke-width="6" stroke="url(#SvgjsLinearGradient1013)" stroke-linecap="round" class="Up"></path><path d="M527 330L526 532" stroke-width="10" stroke="url(#SvgjsLinearGradient1013)" stroke-linecap="round" class="Up"></path><path d="M1316 206L1315 383" stroke-width="8" stroke="url(#SvgjsLinearGradient1013)" stroke-linecap="round" class="Up"></path><path d="M683 152L682 445" stroke-width="8" stroke="url(#SvgjsLinearGradient1012)" stroke-linecap="round" class="Down"></path><path d="M6 510L5 170" stroke-width="6" stroke="url(#SvgjsLinearGradient1012)" stroke-linecap="round" class="Down"></path><path d="M694 333L693 87" stroke-width="6" stroke="url(#SvgjsLinearGradient1013)" stroke-linecap="round" class="Up"></path></g><defs><mask id="SvgjsMask1011"><rect width="1440" height="560" fill="#ffffff"></rect></mask><linearGradient x1="0%" y1="0%" x2="0%" y2="100%" id="SvgjsLinearGradient1012"><stop stop-color="rgba(154, 136, 227, 0)" offset="0"></stop><stop stop-color="rgba(154, 136, 227, 0.2)" offset="1"></stop></linearGradient><linearGradient x1="0%" y1="100%" x2="0%" y2="0%" id="SvgjsLinearGradient1013"><stop stop-color="rgba(154, 136, 227, 0)" offset="0"></stop><stop stop-color="rgba(154, 136, 227, 0.2)" offset="1"></stop></linearGradient></defs></svg>