<svg xmlns="http://www.w3.org/2000/svg" version="1.1" xmlns:xlink="http://www.w3.org/1999/xlink" xmlns:svgjs="http://svgjs.com/svgjs" width="1440" height="250" preserveAspectRatio="none" viewBox="0 0 1440 250"><g mask="url(&quot;#SvgjsMask1003&quot;)" fill="none"><rect width="1440" height="250" x="0" y="0" fill="rgba(15, 18, 33, 1)"></rect><path d="M33 250L283 0L479.5 0L229.5 250z" fill="url(#SvgjsLinearGradient1004)"></path><path d="M268.6 250L518.6 0L814.1 0L564.1 250z" fill="url(#SvgjsLinearGradient1004)"></path><path d="M508.20000000000005 250L758.2 0L1106.2 0L856.2 250z" fill="url(#SvgjsLinearGradient1004)"></path><path d="M748.8000000000001 250L998.8000000000001 0L1210.3000000000002 0L960.3000000000001 250z" fill="url(#SvgjsLinearGradient1004)"></path><path d="M1432 250L1182 0L933 0L1183 250z" fill="url(#SvgjsLinearGradient1005)"></path><path d="M1172.4 250L922.4000000000001 0L664.4000000000001 0L914.4000000000001 250z" fill="url(#SvgjsLinearGradient1005)"></path><path d="M927.8 250L677.8 0L611.8 0L861.8 250z" fill="url(#SvgjsLinearGradient1005)"></path><path d="M722.1999999999999 250L472.19999999999993 0L233.69999999999993 0L483.69999999999993 250z" fill="url(#SvgjsLinearGradient1005)"></path><path d="M1307.573489045729 250L1440 117.57348904572913L1440 250z" fill="url(#SvgjsLinearGradient1004)"></path><path d="M0 250L132.42651095427087 250L 0 117.57348904572913z" fill="url(#SvgjsLinearGradient1005)"></path></g><defs><mask id="SvgjsMask1003"><rect width="1440" height="250" fill="#ffffff"></rect></mask><linearGradient x1="0%" y1="100%" x2="100%" y2="0%" id="SvgjsLinearGradient1004"><stop stop-color="rgba(15, 70, 185, 0.2)" offset="0"></stop><stop stop-opacity="0" stop-color="rgba(15, 70, 185, 0.2)" offset="0.66"></stop></linearGradient><linearGradient x1="100%" y1="100%" x2="0%" y2="0%" id="SvgjsLinearGradient1005"><stop stop-color="rgba(15, 70, 185, 0.2)" offset="0"></stop><stop stop-opacity="0" stop-color="rgba(15, 70, 185, 0.2)" offset="0.66"></stop></linearGradient></defs></svg>