<svg xmlns="http://www.w3.org/2000/svg" version="1.1" xmlns:xlink="http://www.w3.org/1999/xlink"
    xmlns:svgjs="http://svgjs.com/svgjs" width="1440" height="560" preserveAspectRatio="none" viewBox="0 0 1440 560">
    <g mask="url(&quot;#SvgjsMask1048&quot;)" fill="none">
        <rect width="1440" height="560" x="0" y="0" fill="#006046"></rect>
        <path
            d="M0,455.494C107.134,468.746,216.785,534.73,315.335,490.671C415.238,446.008,477.808,336.421,504.003,230.17C528.41,131.171,485.94,31.231,452.337,-65.036C424.16,-145.76,368.4,-208.025,325.277,-281.854C270.311,-375.959,260.12,-507.217,164.03,-558.635C67.036,-610.537,-61.95,-593.028,-158.822,-540.898C-250.609,-491.505,-277.247,-377.023,-334.868,-290.165C-384.037,-216.047,-442.486,-151.646,-472.576,-67.946C-508.535,32.079,-566.511,141.925,-525.452,239.966C-484.38,338.037,-367.263,378.057,-268.893,418.406C-183.451,453.452,-91.652,444.157,0,455.494"
            fill="rgba(25,79,63,0.844)"></path>
        <path
            d="M1440 910.279C1521.061 928.832 1605.427 968.223 1682.854 937.8879999999999 1763.46 906.308 1822.779 829.722 1852.837 748.5360000000001 1881.992 669.789 1864.621 583.344 1844.283 501.873 1825.545 426.80899999999997 1790.442 358.698 1740.724 299.421 1690.37 239.38600000000002 1629.1970000000001 191.47199999999998 1557.473 159.923 1478.03 124.97899999999998 1388.442 77.46199999999999 1307.539 108.87799999999999 1226.627 140.298 1211.119 246.95800000000003 1157.5230000000001 315.23199999999997 1107.347 379.148 1030.348 420.70500000000004 1002.751 497.133 972.043 582.178 941.822 690.352 995.9110000000001 762.809 1051.853 837.7470000000001 1170.6779999999999 811.502 1259.429 840.9739999999999 1321.88 861.712 1375.855 895.597 1440 910.279"
            fill="#ffffff"></path>
    </g>
    <defs>
        <mask id="SvgjsMask1048">
            <rect width="1440" height="560" fill="#693434"></rect>
        </mask>
    </defs>
</svg>