<?xml version="1.0" standalone="no"?>
<!DOCTYPE svg PUBLIC "-//W3C//DTD SVG 20010904//EN"
 "http://www.w3.org/TR/2001/REC-SVG-20010904/DTD/svg10.dtd">
<svg version="1.0" xmlns="http://www.w3.org/2000/svg"
 width="283.000000pt" height="284.000000pt" viewBox="0 0 283.000000 284.000000"
 preserveAspectRatio="xMidYMid meet">



 <rect width="283.000000pt" height="284.000000pt" x="0" y="0" fill="#F9F9FC"></rect>
 
<g transform="translate(0.000000,284.000000) scale(0.100000,-0.100000)">
  
<path d="M0 1420 l0 -1420 1415 0 1415 0 0 1420 0 1420 -1415 0 -1415 0 0
-1420z m1713 526 c48 -52 87 -97 87 -100 0 -3 -156 -6 -346 -6 -244 0 -359 -4
-388 -12 -54 -16 -131 -93 -145 -144 -37 -132 28 -259 150 -294 19 -6 169 -10
336 -10 l303 0 29 -27 c45 -42 46 -100 2 -144 l-29 -29 -314 0 c-333 0 -367 4
-462 52 -52 27 -128 99 -164 156 -49 78 -64 141 -60 245 2 78 8 102 35 159 53
113 138 189 258 230 43 15 91 17 336 18 l286 0 86 -94z m73 -250 c72 -19 146
-61 199 -114 86 -85 126 -181 126 -307 1 -171 -90 -313 -250 -389 l-66 -31
-300 -3 -300 -3 -87 95 c-49 52 -88 97 -88 100 0 3 159 6 353 6 349 0 352 0
403 24 165 77 180 313 26 403 l-47 28 -328 5 -329 5 -24 28 c-42 49 -26 135
30 157 37 15 624 12 682 -4z"  stroke-width="5" fill="#5E3AEE"></path>
</g>

</svg>
