<?xml version="1.0" standalone="no"?>
<!DOCTYPE svg PUBLIC "-//W3C//DTD SVG 20010904//EN"
 "http://www.w3.org/TR/2001/REC-SVG-20010904/DTD/svg10.dtd">
<svg version="1.0" xmlns="http://www.w3.org/2000/svg"
 width="758.000000pt" height="758.000000pt" viewBox="0 0 758.000000 758.000000"
 preserveAspectRatio="xMidYMid meet">
<metadata>
Created by potrace 1.14, written by Peter Selinger 2001-2017
</metadata>
<g transform="translate(0.000000,758.000000) scale(0.100000,-0.100000)"
fill="#000000" stroke="none">
<path d="M20 3790 l0 -3790 3775 0 3775 0 0 3790 0 3790 -3775 0 -3775 0 0
-3790z m4547 1428 c247 -274 256 -285 243 -293 -6 -4 -410 -11 -898 -16 -488
-5 -924 -13 -969 -18 -60 -7 -98 -18 -141 -41 -114 -60 -237 -181 -296 -290
-83 -152 -70 -416 30 -587 67 -118 224 -235 351 -264 63 -14 669 -28 1243 -29
l455 0 58 -55 c100 -96 132 -205 87 -303 -11 -24 -48 -73 -82 -109 l-63 -65
-805 5 c-946 5 -971 7 -1180 96 -229 98 -483 351 -596 595 -60 131 -76 209
-81 407 -8 265 10 365 97 545 170 351 510 603 857 633 48 5 403 9 789 10 l701
1 200 -222z m104 -677 c276 -28 549 -188 750 -439 72 -90 121 -176 160 -283
55 -150 63 -206 63 -419 -1 -179 -3 -203 -27 -293 -53 -198 -170 -394 -314
-528 -97 -89 -192 -151 -354 -231 l-135 -66 -805 -8 -804 -7 -219 241 c-224
246 -243 269 -231 280 3 4 408 10 898 13 576 5 915 11 957 18 104 18 240 90
320 171 114 114 180 275 180 440 -1 217 -96 391 -278 508 -42 27 -90 56 -107
64 -26 14 -155 18 -900 28 l-870 12 -42 46 c-67 73 -88 124 -87 212 0 58 5 85
23 120 49 95 88 119 215 130 130 12 1479 4 1607 -9z"/>
</g>
</svg>
