<?xml version="1.0" encoding="UTF-8"?>
<svg xmlns="http://www.w3.org/2000/svg" viewBox="228 61 862 862">
  <style>
    .logo-main   { fill: #e2e2e2; }
    .logo-accent { fill: #888888; }
    @media (prefers-color-scheme: light) {
      .logo-main   { fill: #1a1a1a; }
      .logo-accent { fill: #555555; }
    }
  </style>
  <path class="logo-main" d="M0 0 C0.73541016 0.05140137 1.47082031 0.10280273 2.22851562 0.15576172 C36.0886793 2.73566221 70.95005604 16.258045 99 35 C99.61593018 35.40750488 100.23186035 35.81500977 100.86645508 36.23486328 C104.62882985 38.75002608 108.31451219 41.37426876 112 44 C113.01707031 44.71414063 114.03414062 45.42828125 115.08203125 46.1640625 C130.1431013 57.18990246 143.00459268 70.97433691 154 86 C154.96535571 87.29486027 155.93152684 88.58911295 156.8984375 89.8828125 C171 108.83735784 171 108.83735784 171 113 C159.50413454 118.78344424 147.95314216 124.4459005 136.375 130.0625 C126.56901775 134.82102883 116.76873975 139.58688715 107.0390625 144.5 C106.34767181 144.84864609 105.65628113 145.19729218 104.94393921 145.5565033 C101.72557547 147.18085727 98.51113478 148.81233207 95.30224609 150.45532227 C89.93312027 153.1750725 84.89149424 155.68982759 79 157 C78.43152344 156.29875 77.86304688 155.5975 77.27734375 154.875 C74.86234376 151.90765443 72.43419848 148.95161265 70 146 C69.41605469 145.28714844 68.83210938 144.57429687 68.23046875 143.83984375 C49.84231159 122.05144341 22.08930442 106.38127128 -6.41015625 103.21533203 C-39.19802204 100.48919161 -69.95571986 107.69801723 -95.875 128.5625 C-97.58838658 130.03581029 -99.29705961 131.51462771 -101 133 C-101.75539063 133.59941406 -102.51078125 134.19882812 -103.2890625 134.81640625 C-122.59048936 150.60538264 -133.89539806 176.93344908 -138 201 C-138.18433594 202.03125 -138.36867188 203.0625 -138.55859375 204.125 C-142.28543501 236.84204892 -134.07706115 267.93081425 -114 294 C-111.14775796 297.49514454 -108.16038929 300.78176665 -105 304 C-104.21496094 304.80953125 -103.42992187 305.6190625 -102.62109375 306.453125 C-85.30089283 323.27090788 -62.59258451 332.88789932 -39.02636719 336.67260742 C-37.35458848 336.94271046 -35.68965673 337.2548368 -34.02734375 337.578125 C-4.39911698 341.70696176 26.41691825 331.95339087 50.25 314.5625 C51.21035156 313.7890625 52.17070313 313.015625 53.16015625 312.21875 C56 310 56 310 58.93359375 308.34375 C62.1638037 306.25442271 64.40827854 304.50692874 66 301 C66.67490459 296.55625043 66.72604614 292.14131053 66.76953125 287.65234375 C66.81188904 285.82987122 66.81188904 285.82987122 66.85510254 283.97058105 C66.92194607 280.98025101 66.9696009 277.990886 67 275 C66.43493303 275.00092179 65.86986607 275.00184359 65.28767586 275.00279331 C51.55077659 275.02485883 37.81388042 275.0413528 24.07696724 275.05181217 C17.43395453 275.05703966 10.79095458 275.0641349 4.14794922 275.07543945 C-2.25811006 275.08627306 -8.66415704 275.09227785 -15.07022476 275.09487724 C-17.51914794 275.09673063 -19.96807041 275.1003496 -22.41698837 275.10573006 C-25.83643825 275.11294674 -29.25583675 275.11399067 -32.67529297 275.11352539 C-33.69668365 275.11712067 -34.71807434 275.12071594 -35.77041626 275.12442017 C-36.69872253 275.1230455 -37.62702881 275.12167084 -38.58346558 275.12025452 C-39.39279982 275.12117631 -40.20213406 275.1220981 -41.03599358 275.12304783 C-43 275 -43 275 -45 274 C-45 244.3 -45 214.6 -45 184 C-17.11513533 183.97745599 10.76972201 183.95902259 38.65459347 183.94818783 C51.60103112 183.94302411 64.54746272 183.93597997 77.49389648 183.92456055 C88.77355073 183.91461602 100.05320059 183.90814713 111.3328591 183.90591151 C117.30935906 183.904604 123.28584649 183.90151567 129.26234245 183.89426994 C134.8805608 183.88751337 140.49876139 183.88538229 146.11698341 183.88689232 C148.18547538 183.88661583 150.2539679 183.88460856 152.32245636 183.88079453 C155.13348582 183.87586295 157.94444706 183.87699972 160.75547791 183.87974548 C161.585228 183.87683264 162.41497809 183.8739198 163.26987213 183.87091869 C168.88587879 183.88587879 168.88587879 183.88587879 170 185 C170.10968907 186.88586718 170.14856857 188.77587052 170.16062927 190.66488647 C170.1706749 191.89565918 170.18072052 193.12643188 170.19107056 194.39450073 C170.19710149 195.77130066 170.20298642 197.14810123 170.20874023 198.52490234 C170.21827445 199.96531403 170.22816541 201.4057234 170.23838806 202.84613037 C170.26984723 207.59270488 170.29005986 212.33929723 170.30859375 217.0859375 C170.31189107 217.89378079 170.31518839 218.70162408 170.31858563 219.53394747 C170.34938933 227.15681852 170.37609421 234.77969348 170.39300442 242.40260887 C170.41487032 252.14548162 170.45673204 261.88780028 170.52644199 271.63045156 C170.57380111 278.48323765 170.5979545 285.33587498 170.6052013 292.18881953 C170.61014317 296.27899311 170.62508069 300.36854322 170.6649456 304.45853806 C170.70203283 308.31486657 170.71015056 312.17022145 170.69693947 316.02669525 C170.69699307 317.43471563 170.70714649 318.84278151 170.7286911 320.25063705 C170.86614631 329.74850927 169.35845658 336.11527557 164 344 C163.04577148 345.4545459 163.04577148 345.4545459 162.07226562 346.93847656 C161.52248047 347.66518555 160.97269531 348.39189453 160.40625 349.140625 C159.77525391 349.9764209 159.14425781 350.8122168 158.49414062 351.67333984 C157.83607422 352.5236377 157.17800781 353.37393555 156.5 354.25 C155.80583984 355.15314941 155.11167969 356.05629883 154.39648438 356.98681641 C145.90529557 367.88667501 136.7285118 378.2483349 126 387 C125.11183594 387.76441406 124.22367188 388.52882813 123.30859375 389.31640625 C116.19894406 395.38788023 108.83808251 400.88703037 101 406 C100.34821777 406.42925781 99.69643555 406.85851562 99.02490234 407.30078125 C65.13227337 429.43344134 25.35715317 441.23871106 -15 443 C-16.207771 443.05776611 -16.207771 443.05776611 -17.43994141 443.11669922 C-50.30270296 444.48286573 -83.15861755 436.25626378 -113 423 C-113.81807129 422.6479248 -114.63614258 422.29584961 -115.47900391 421.93310547 C-126.139848 417.34367374 -135.50449831 411.64345589 -145 405 C-146.47665154 404.05854342 -147.95544994 403.1204351 -149.4375 402.1875 C-197.37921382 370.22635745 -227.98758183 319.64994673 -240 264 C-240.18079102 263.19030762 -240.36158203 262.38061523 -240.54785156 261.54638672 C-245.97661238 236.12402866 -245.42921377 205.36072092 -240 180 C-239.80132324 179.05527832 -239.60264648 178.11055664 -239.39794922 177.13720703 C-232.5710306 145.63110545 -220.0481284 116.59515959 -201.3125 90.375 C-200.79018799 89.64095947 -200.26787598 88.90691895 -199.72973633 88.15063477 C-196.63797326 83.91834386 -193.3375722 80.17279568 -189.57299805 76.52734375 C-187.69671444 74.70551693 -185.9616284 72.78902327 -184.25 70.8125 C-183.69828125 70.17957031 -183.1465625 69.54664063 -182.578125 68.89453125 C-180.94466565 66.98515263 -180.94466565 66.98515263 -179.421875 64.76171875 C-178.95265625 64.18035156 -178.4834375 63.59898437 -178 63 C-177.34 63 -176.68 63 -176 63 C-176 62.34 -176 61.68 -176 61 C-173.58463039 58.4177792 -170.71404648 56.25851541 -168 54 C-167.45778809 53.53625977 -166.91557617 53.07251953 -166.35693359 52.59472656 C-138.79504998 29.02633416 -107.06251464 13.76118887 -72 5 C-71.17322754 4.78472656 -70.34645508 4.56945312 -69.49462891 4.34765625 C-46.85802267 -1.48666804 -23.189135 -1.73875791 0 0 Z" transform="translate(470,271)"/>
  <path class="logo-main" d="M0 0 C31.35 0 62.7 0 95 0 C102.73005649 10.30674198 110.42167722 20.60850025 117.921875 31.078125 C123.86195276 39.35571243 129.89799849 47.53513535 136.12158203 55.60180664 C140.60214693 61.42977316 144.9132549 67.36890563 149.19750977 73.34204102 C152.72244078 78.25000499 156.30037511 83.11213902 159.9375 87.9375 C164.28420339 93.70437073 168.59459377 99.49622166 172.875 105.3125 C173.45870361 106.1055957 174.04240723 106.89869141 174.64379883 107.71582031 C177.02704441 110.9554374 179.40900327 114.19599955 181.79101562 117.43652344 C187.82877474 125.6485357 193.87289444 133.85433768 200 142 C206.13028521 150.1498895 212.17710259 158.3602261 218.21777344 166.57666016 C221.14230746 170.55322518 224.07135433 174.52646271 227 178.5 C228.16668888 180.08331696 229.33335553 181.66665031 230.5 183.25 C231.0775 184.03375 231.655 184.8175 232.25 185.625 C237.5 192.75 237.5 192.75 239.24951172 195.12451172 C240.41758398 196.70963628 241.58587868 198.29459694 242.75439453 199.87939453 C245.65139141 203.80901631 248.5446114 207.74130352 251.4296875 211.6796875 C257.62103495 220.12203449 263.88501498 228.50008643 270.25 236.8125 C275.03267085 243.06049979 279.74628722 249.33754061 284.28320312 255.76611328 C289.46946652 263.10901937 294.84167599 270.31591947 300.18554688 277.54443359 C303.12794685 281.52649212 306.0637044 285.51343938 309 289.5 C310.16663334 291.08335789 311.33330004 292.6666912 312.5 294.25 C347.5 341.75 347.5 341.75 349.25097656 344.12646484 C350.41421026 345.70504637 351.57762088 347.28349754 352.74121094 348.86181641 C355.71188824 352.89178564 358.67917562 356.9241811 361.640625 360.9609375 C362.84356035 362.59909761 364.04668309 364.23712014 365.25 365.875 C365.82983643 366.66479248 366.40967285 367.45458496 367.00708008 368.26831055 C371.23636439 374.01067594 375.57579878 379.65424082 380.01171875 385.23828125 C384.0115833 390.79408525 385.44674371 395.17094666 385.328125 401.98828125 C385.32625183 402.73208542 385.32437866 403.47588959 385.32244873 404.24223328 C385.31576264 405.80289237 385.30191722 407.3635357 385.28125 408.92407227 C385.24986805 411.32258527 385.24025236 413.72044188 385.234375 416.11914062 C385.2252132 417.63802892 385.21484007 419.1569105 385.203125 420.67578125 C385.19887512 421.39550613 385.19462524 422.11523102 385.19024658 422.85676575 C385.11722336 427.88277664 385.11722336 427.88277664 384 429 C380.90750264 429.14868462 377.83656863 429.23182738 374.74194336 429.2722168 C373.28333389 429.29653023 373.28333389 429.29653023 371.79525757 429.32133484 C362.80614876 429.46175167 353.81603935 429.53968507 344.82607174 429.60025311 C338.78339071 429.64122319 332.74233031 429.70156659 326.70043945 429.80932617 C320.8635879 429.91308767 315.02818197 429.9676596 309.19046211 429.98771095 C306.96680233 430.00364388 304.74319551 430.03687299 302.5200634 430.08786583 C285.11012691 430.46799822 285.11012691 430.46799822 279.92811584 426.86291504 C277.86127639 424.31845332 276.43850935 421.93403026 275 419 C273.92300905 417.48388817 272.82369704 415.98308269 271.69140625 414.5078125 C270.64608788 413.04855526 269.60314082 411.58759662 268.5625 410.125 C264.11948483 403.92533935 259.61845688 397.78329847 255.0234375 391.6953125 C252.42330273 388.23181252 249.88379668 384.72643351 247.34375 381.21875 C244.35250509 377.11077366 241.33153764 373.02507113 238.3125 368.9375 C233.67180991 362.65089364 229.06506383 356.34172598 224.5 350 C218.27488788 341.35343042 211.95780131 332.77645507 205.62841797 324.20605469 C198.71498435 314.84026965 191.86251726 305.43270072 185.05761719 295.98779297 C180.374742 289.49795383 175.63358375 283.05214589 170.87963867 276.61425781 C167.90540301 272.58639532 164.93864967 268.55395807 162 264.5 C156.66324968 257.14209743 151.25544374 249.83627916 145.85986328 242.52148438 C141.11253809 236.08536275 136.36752328 229.64753992 131.62548828 223.20751953 C130.57719221 221.78386482 129.52870401 220.36035157 128.47998047 218.93701172 C123.04053719 211.55216755 117.63710715 204.14572374 112.34667969 196.65307617 C110.54031323 194.10500007 108.70186761 191.63816411 106.71484375 189.2265625 C105 187 105 187 105 185 C104.34 185 103.68 185 103 185 C103 265.52 103 346.04 103 429 C69.01 429 35.02 429 0 429 C0 287.43 0 145.86 0 0 Z" transform="translate(704,277)"/>
  <path class="logo-accent" d="M0 0 C0.94082932 0.00359528 1.88165863 0.00719055 2.85099792 0.01089478 C4.3288829 0.01067574 4.3288829 0.01067574 5.83662415 0.01045227 C9.11023623 0.01115185 12.3837922 0.01894632 15.65739441 0.02676392 C17.92040984 0.02862794 20.18342567 0.03005191 22.44644165 0.03105164 C28.41577764 0.03487807 34.38508948 0.04470942 40.35441589 0.05575562 C46.44043145 0.06596705 52.52645089 0.07054868 58.61247253 0.07559204 C70.56365505 0.08633157 82.5148196 0.10340949 94.46598816 0.12442017 C95.92289682 3.03823749 95.56985335 5.56342815 95.54827881 8.81878662 C95.54504968 9.51469937 95.54182055 10.21061212 95.53849357 10.92761314 C95.52638318 13.27077672 95.50701776 15.61382512 95.48771667 17.9569397 C95.47757762 19.63208768 95.46788354 21.3072384 95.45860291 22.98239136 C95.43208449 27.54001648 95.39931267 32.09757805 95.365453 36.65515375 C95.33114695 41.41440773 95.30254352 46.17369583 95.27334595 50.9329834 C95.21715666 59.94985184 95.1558079 68.96667756 95.0926246 77.98349941 C95.02095578 88.24692881 94.95500963 98.51039246 94.88955414 108.77386308 C94.75475199 129.89075992 94.6127308 151.00760315 94.46598816 172.12442017 C81.31449792 172.14754106 68.16301247 172.16533395 55.01150608 172.17623234 C48.90542447 172.18146172 42.79935672 172.18856037 36.69328308 172.19985962 C30.80593669 172.21068653 24.91860367 172.21669658 19.03124809 172.21929741 C16.77966539 172.22115201 14.52808347 172.22477329 12.27650642 172.23015022 C9.13465389 172.23735805 5.99285733 172.23841122 2.85099792 172.23794556 C1.91016861 172.24154083 0.96933929 172.24513611 0 172.24884033 C-6.41995968 172.23847233 -6.41995968 172.23847233 -7.53401184 171.12442017 C-7.63319396 168.93713093 -7.66033582 166.74657404 -7.66099548 164.55703735 C-7.66255547 163.86268459 -7.66411546 163.16833183 -7.66572273 162.45293808 C-7.66973495 160.10903599 -7.66654224 157.76519782 -7.66340637 155.42129517 C-7.66476032 153.74791424 -7.66654021 152.07453362 -7.66871643 150.40115356 C-7.6732916 145.84343237 -7.67150086 141.2857337 -7.66833735 136.72801208 C-7.66581417 131.96919695 -7.66815116 127.21038381 -7.66972351 122.4515686 C-7.67154533 114.458401 -7.66913857 106.46524262 -7.66438293 98.47207642 C-7.65894029 89.21703731 -7.66070294 79.96202023 -7.66620934 70.70698166 C-7.67074011 62.77579942 -7.67139119 54.84462382 -7.66877067 46.9134407 C-7.6672077 42.16992074 -7.66701468 37.42641115 -7.67030716 32.68289185 C-7.67318536 28.22441064 -7.67121113 23.76595797 -7.6654129 19.30747986 C-7.66408503 17.6663162 -7.66447988 16.02515016 -7.66667557 14.38398743 C-7.66938601 12.15322631 -7.66600728 9.92255809 -7.66099548 7.69180298 C-7.66061846 6.44038513 -7.66024143 5.18896729 -7.65985298 3.89962769 C-7.42227562 -1.33972796 -4.56472795 0.00737187 0 0 Z" transform="translate(993.5340118408203,276.8755798339844)"/>
</svg>
