<svg width="100" height="100" viewBox="0 0 100 100" fill="none" xmlns="http://www.w3.org/2000/svg">
<path d="M73.7555 48.118V31.8699C73.7555 30.2447 72.9158 28.7354 71.5364 27.8811L51.8671 15.7001C50.3957 14.7889 48.5428 14.7656 47.0491 15.6395L29.6742 25.8048L47.2284 32.2414L73.7555 48.118Z" fill="white"/>
<path d="M26.5947 28.5539C29.3867 24.5578 34.8824 23.5866 38.8698 26.3847L47.2464 32.263C40.745 31.8761 42.6523 32.7054 41.9836 49.5125L32.7715 43.6719L28.7591 40.8562C24.7718 38.058 23.8027 32.5501 26.5947 28.5539Z" fill="#595959"/>
<path d="M25.2445 51.882L25.2445 68.1302C25.2445 69.7553 26.0842 71.2646 27.4636 72.1189L47.1329 84.2999C48.6043 85.2111 50.4572 85.2344 51.9509 84.3605L69.3258 74.1952L51.7716 67.7586L25.2445 51.882Z" fill="white"/>
<path d="M72.4053 71.4461C69.6133 75.4422 64.1176 76.4134 60.1302 73.6153L51.7536 67.737C58.255 68.1239 56.3477 67.2946 57.0164 50.4874L66.2285 56.3281L70.2409 59.1439C74.2282 61.942 75.1973 67.4499 72.4053 71.4461Z" fill="#595959"/>
</svg>
